<?xml version="1.0" standalone="no"?>
<!DOCTYPE svg PUBLIC "-//W3C//DTD SVG 20010904//EN"
 "http://www.w3.org/TR/2001/REC-SVG-20010904/DTD/svg10.dtd">
<svg version="1.0" xmlns="http://www.w3.org/2000/svg"
 width="512.000000pt" height="512.000000pt" viewBox="0 0 512.000000 512.000000"
 preserveAspectRatio="xMidYMid meet">

<g transform="translate(0.000000,512.000000) scale(0.100000,-0.100000)"
fill="#000000" stroke="none">
<path d="M2773 5098 c-23 -13 -455 -308 -961 -655 l-920 -633 -406 0 -406 0
-38 -34 -37 -34 0 -1182 0 -1182 37 -34 38 -34 343 0 342 0 119 119 c92 92
114 120 101 125 -9 3 -176 6 -371 6 l-354 0 0 1000 0 1000 356 0 c249 0 362 3
377 12 12 6 92 59 177 118 501 346 1530 1050 1535 1050 3 0 5 -334 5 -742 l0
-743 130 130 130 130 0 750 c0 708 -1 752 -18 785 -20 38 -72 70 -113 70 -14
0 -44 -10 -66 -22z"/>
<path d="M4935 5105 c-17 -9 -1131 -1117 -2477 -2463 -2190 -2190 -2447 -2451
-2453 -2484 -10 -51 0 -85 34 -119 34 -34 68 -44 119 -34 33 6 294 263 2485
2453 1346 1346 2454 2461 2462 2479 20 42 19 82 -5 120 -35 58 -104 78 -165
48z"/>
<path d="M4486 3941 l-90 -90 46 -58 c180 -230 314 -521 380 -828 39 -184 50
-480 24 -670 -53 -381 -208 -733 -448 -1020 -41 -49 -88 -101 -103 -115 -38
-35 -55 -72 -55 -121 0 -35 6 -48 39 -80 34 -35 44 -39 87 -39 49 0 50 1 139
92 638 656 796 1701 384 2544 -61 125 -208 356 -276 432 l-38 43 -89 -90z"/>
<path d="M3836 3291 l-88 -88 46 -79 c186 -318 205 -702 51 -1030 -50 -108
-101 -184 -184 -278 -82 -93 -90 -140 -35 -205 33 -40 83 -56 128 -41 43 14
146 122 215 224 278 411 313 931 93 1371 -43 86 -113 198 -130 209 -5 3 -48
-35 -96 -83z"/>
<path d="M2838 2293 l-128 -128 0 -893 c0 -490 -2 -892 -5 -892 -3 0 -243 163
-532 361 l-526 361 -90 -91 c-58 -57 -88 -94 -82 -100 37 -34 1307 -896 1332
-904 47 -15 106 5 135 46 l23 32 3 835 c1 459 1 985 0 1168 l-3 332 -127 -127z"/>
</g>
</svg>
