<?xml version="1.0" standalone="no"?>
<!DOCTYPE svg PUBLIC "-//W3C//DTD SVG 20010904//EN"
 "http://www.w3.org/TR/2001/REC-SVG-20010904/DTD/svg10.dtd">
<svg version="1.0" xmlns="http://www.w3.org/2000/svg"
 width="512.000000pt" height="512.000000pt" viewBox="0 0 512.000000 512.000000"
 preserveAspectRatio="xMidYMid meet">

<g transform="translate(0.000000,512.000000) scale(0.100000,-0.100000)"
fill="#000000" stroke="none">
<path d="M2145 4630 c-16 -10 -295 -271 -620 -579 l-590 -560 -418 0 c-360 -1
-424 -3 -452 -17 -68 -32 -65 8 -65 -914 0 -922 -3 -882 65 -914 28 -14 92
-16 452 -17 l418 0 590 -560 c325 -308 604 -569 620 -579 66 -43 155 -13 175
58 14 51 14 3973 0 4024 -20 71 -109 101 -175 58z m-57 -2919 l-3 -850 -519
490 c-286 270 -531 495 -544 500 -13 5 -196 9 -408 9 l-384 0 0 700 0 700 384
0 c212 0 395 4 408 9 13 5 258 230 544 500 l519 490 3 -850 c1 -467 1 -1231 0
-1698z"/>
<path d="M3914 4616 c-29 -29 -34 -41 -34 -81 0 -54 7 -63 159 -185 369 -297
656 -750 776 -1225 49 -196 68 -350 68 -565 0 -518 -158 -986 -475 -1408 -92
-122 -253 -289 -369 -382 -147 -119 -159 -132 -159 -179 0 -111 94 -156 191
-92 137 91 366 311 494 476 407 521 606 1184 544 1811 -60 606 -315 1150 -739
1575 -122 122 -270 248 -327 278 -43 22 -92 14 -129 -23z"/>
<path d="M3284 3916 c-27 -27 -34 -42 -34 -73 0 -53 16 -71 128 -155 294 -217
483 -514 554 -872 28 -140 28 -372 0 -512 -71 -358 -260 -655 -554 -872 -53
-40 -104 -82 -113 -94 -30 -44 -12 -123 34 -153 59 -37 105 -23 233 72 206
153 367 345 483 578 101 204 146 364 167 597 19 204 -10 440 -78 648 -37 113
-146 323 -221 429 -82 114 -220 256 -329 338 -118 89 -143 103 -192 103 -37 0
-50 -6 -78 -34z"/>
<path d="M2844 3121 c-39 -24 -58 -69 -50 -117 6 -27 23 -51 67 -93 113 -106
160 -209 160 -351 0 -142 -47 -245 -160 -351 -67 -64 -83 -106 -60 -160 15
-38 63 -69 105 -69 62 0 176 100 249 220 135 221 135 499 0 720 -73 120 -187
220 -249 220 -17 0 -45 -9 -62 -19z"/>
</g>
</svg>
